<svg xmlns="http://www.w3.org/2000/svg" viewBox="0 0 100 100" width="40" height="40">
  <!-- 大脑外圈 -->
  <circle cx="50" cy="50" r="40" fill="none" stroke="#ff3333" stroke-width="5" />
  
  <!-- 大脑形状 -->
  <path d="M50 20 C65 20, 75 35, 75 50 C75 65, 65 80, 50 80 C35 80, 25 65, 25 50 C25 35, 35 20, 50 20" fill="#f0f0a0" />
  
  <!-- 大脑沟回 -->
  <path d="M30 40 Q40 30, 50 40 Q60 50, 70 40" fill="none" stroke="#ff3333" stroke-width="3" />
  <path d="M30 50 Q40 40, 50 50 Q60 60, 70 50" fill="none" stroke="#ff3333" stroke-width="3" />
  <path d="M30 60 Q40 50, 50 60 Q60 70, 70 60" fill="none" stroke="#ff3333" stroke-width="3" />
  
  <!-- 箭头 -->
  <path d="M50 20 L50 80" fill="none" stroke="#ff3333" stroke-width="5" />
  <path d="M40 70 L50 80 L60 70" fill="#ff3333" />
</svg>